<svg width="164" height="101" viewBox="0 0 164 101" fill="none" xmlns="http://www.w3.org/2000/svg">
<path fill-rule="evenodd" clip-rule="evenodd" d="M74.3008 42.5871C74.3008 40.8094 74.5932 39.5317 75.1785 38.7553C75.7639 37.9795 76.7084 37.591 78.0142 37.591C79.1626 37.591 79.9607 37.9451 80.4116 38.654C80.8613 39.3629 81.0862 40.4381 81.0862 41.8782V51.7349H85.8798V41.0005C85.8798 39.9202 85.7842 38.9362 85.5932 38.0464C85.4014 37.1578 85.0696 36.4043 84.597 35.7846C84.125 35.1661 83.4772 34.6827 82.6562 34.3336C81.8339 33.9846 80.7823 33.8101 79.4995 33.8101C78.4868 33.8101 77.4963 34.0413 76.5288 34.5018C75.5613 34.9636 74.7734 35.7005 74.1658 36.7132H74.0651V34.2827H69.5078V51.7349H74.3008V42.5871Z" fill="black" fill-opacity="0.25"/>
<path fill-rule="evenodd" clip-rule="evenodd" d="M91.5002 39.9873C91.6231 39.5605 91.8378 39.1548 92.1416 38.772C92.4454 38.3898 92.8505 38.0694 93.3569 37.8102C93.8632 37.5516 94.4983 37.4217 95.2645 37.4217C96.434 37.4217 97.3059 37.737 97.8804 38.3675C98.4543 38.9975 98.8531 39.9198 99.0785 41.135H91.2804C91.3021 40.7975 91.3766 40.4153 91.5002 39.9873ZM103.568 46.3338H99.3486C99.1913 46.8745 98.7632 47.3866 98.0658 47.8694C97.3683 48.3542 96.5352 48.5956 95.5683 48.5956C94.218 48.5956 93.1824 48.2472 92.4626 47.5491C91.7416 46.8522 91.3486 45.7261 91.2804 44.1733H103.872C103.961 42.8229 103.85 41.5293 103.535 40.2911C103.219 39.0542 102.708 37.951 101.998 36.9828C101.29 36.0159 100.384 35.2446 99.2811 34.6707C98.1779 34.0968 96.8843 33.8096 95.3989 33.8096C94.0709 33.8096 92.862 34.0459 91.7703 34.5191C90.6785 34.9917 89.739 35.6382 88.9518 36.4599C88.1632 37.2815 87.5556 38.2548 87.1289 39.3796C86.7008 40.5051 86.4868 41.7204 86.4868 43.0261C86.4868 44.3764 86.6951 45.614 87.111 46.7389C87.5282 47.8643 88.118 48.8319 88.8843 49.6421C89.6486 50.4522 90.5836 51.0771 91.6862 51.5153C92.7881 51.9548 94.0263 52.1739 95.3989 52.1739C97.3792 52.1739 99.0671 51.7242 100.463 50.8236C101.858 49.9236 102.893 48.4268 103.568 46.3338Z" fill="black" fill-opacity="0.25"/>
<path fill-rule="evenodd" clip-rule="evenodd" d="M129.966 34.2822H125.038L121.831 46.0975H121.763L118.793 34.2822H114.135L111.231 46.1313H111.163L107.956 34.2822H102.893L108.43 51.7345H113.392L116.363 40.0211H116.43L119.535 51.7345H124.464L129.966 34.2822Z" fill="black" fill-opacity="0.25"/>
<path fill-rule="evenodd" clip-rule="evenodd" d="M129.831 41.3542C130.146 41.8835 130.562 42.3223 131.08 42.6707C131.598 43.0204 132.189 43.3013 132.852 43.5147C133.516 43.7293 134.197 43.9147 134.895 44.072C136.605 44.4319 137.938 44.7924 138.895 45.1522C139.851 45.5121 140.329 46.0522 140.329 46.772C140.329 47.2 140.229 47.5548 140.026 47.8357C139.824 48.1172 139.57 48.3421 139.266 48.5108C138.963 48.6796 138.626 48.8038 138.254 48.8822C137.883 48.9612 137.528 49 137.191 49C136.718 49 136.262 48.9446 135.823 48.8319C135.384 48.7191 134.996 48.5446 134.658 48.3083C134.321 48.072 134.045 47.7682 133.831 47.3968C133.617 47.0255 133.511 46.5815 133.511 46.0637H128.954C128.998 47.2338 129.263 48.207 129.747 48.9835C130.231 49.7599 130.849 50.3841 131.603 50.8573C132.357 51.33 133.218 51.6675 134.186 51.8694C135.153 52.0726 136.143 52.1739 137.157 52.1739C138.147 52.1739 139.12 52.0777 140.077 51.8866C141.033 51.6956 141.882 51.3631 142.625 50.8911C143.368 50.4179 143.97 49.7936 144.431 49.0172C144.892 48.2408 145.124 47.279 145.124 46.1312C145.124 45.321 144.966 44.6401 144.651 44.0886C144.335 43.5376 143.919 43.0758 143.402 42.7045C142.884 42.3331 142.292 42.0357 141.629 41.8096C140.965 41.5854 140.284 41.3936 139.587 41.2363C138.912 41.079 138.248 40.9325 137.595 40.7975C136.943 40.6624 136.364 40.5102 135.857 40.3414C135.35 40.1733 134.94 39.9535 134.624 39.6835C134.309 39.4134 134.152 39.0643 134.152 38.637C134.152 38.2771 134.242 37.9905 134.422 37.7758C134.602 37.5624 134.822 37.3994 135.08 37.2866C135.339 37.1745 135.626 37.1007 135.942 37.0669C136.256 37.0331 136.549 37.0166 136.819 37.0166C137.674 37.0166 138.417 37.1803 139.047 37.5057C139.677 37.8325 140.026 38.4573 140.094 39.3796H144.651C144.561 38.2994 144.284 37.4045 143.824 36.6956C143.362 35.9866 142.782 35.4185 142.085 34.9911C141.387 34.5637 140.594 34.2599 139.705 34.0796C138.815 33.8994 137.899 33.8096 136.954 33.8096C136.008 33.8096 135.085 33.8943 134.186 34.0624C133.285 34.2312 132.475 34.5242 131.756 34.9401C131.035 35.3573 130.456 35.9255 130.017 36.6452C129.578 37.3656 129.359 38.2886 129.359 39.4134C129.359 40.179 129.516 40.8255 129.831 41.3542Z" fill="black" fill-opacity="0.25"/>
<mask id="mask0_0_161" style="mask-type:luminance" maskUnits="userSpaceOnUse" x="0" y="0" width="164" height="101">
<path fill-rule="evenodd" clip-rule="evenodd" d="M0 100.299H163.134V0.356445H0V100.299Z" fill="white"/>
</mask>
<g mask="url(#mask0_0_161)">
<path fill-rule="evenodd" clip-rule="evenodd" d="M66.3193 70.2202H68.727V67.8584H66.3193V70.2202Z" fill="black" fill-opacity="0.25"/>
<path fill-rule="evenodd" clip-rule="evenodd" d="M77.2538 67.4011C76.7914 67.8801 76.1328 68.1195 75.2767 68.1195C74.722 68.1195 74.2519 67.9934 73.8659 67.7412C73.4786 67.4896 73.1729 67.1667 72.9468 66.7718C72.72 66.3775 72.5557 65.9361 72.4557 65.4495C72.3544 64.9622 72.3041 64.4839 72.3041 64.0138C72.3041 63.5266 72.3544 63.0355 72.4557 62.5399C72.5557 62.0444 72.7283 61.5915 72.971 61.1794C73.2143 60.768 73.5296 60.4329 73.9162 60.1718C74.3022 59.9119 74.7806 59.7813 75.3525 59.7813C76.8799 59.7813 77.7614 60.5291 77.9971 62.0234H81.4984C81.4481 61.1839 81.2468 60.4578 80.8939 59.845C80.5411 59.2316 80.0831 58.7195 79.5213 58.3081C78.9583 57.8966 78.3207 57.5902 77.6067 57.3883C76.8933 57.1871 76.15 57.0864 75.3774 57.0864C74.32 57.0864 73.3786 57.2629 72.5557 57.6157C71.7334 57.968 71.036 58.459 70.4653 59.089C69.8939 59.7183 69.4621 60.466 69.1685 61.331C68.8742 62.196 68.7271 63.1316 68.7271 64.1393C68.7271 65.1132 68.8863 66.0074 69.2054 66.8221C69.5245 67.6367 69.9691 68.338 70.5411 68.9259C71.1111 69.5132 71.8041 69.9699 72.6188 70.2985C73.4334 70.6253 74.3277 70.789 75.3016 70.789C77.0309 70.789 78.45 70.3355 79.5583 69.4291C80.6665 68.5227 81.3385 67.2043 81.5735 65.475H78.1226C78.0054 66.2801 77.7156 66.9227 77.2538 67.4011Z" fill="black" fill-opacity="0.25"/>
<path fill-rule="evenodd" clip-rule="evenodd" d="M91.2963 65.4871C91.1956 65.982 91.023 66.4278 90.7797 66.8221C90.5364 67.217 90.209 67.5316 89.7975 67.7667C89.3854 68.0017 88.8778 68.1195 88.274 68.1195C87.6695 68.1195 87.1657 68.0017 86.7625 67.7667C86.3593 67.5316 86.0351 67.217 85.7918 66.8221C85.5491 66.4278 85.3765 65.982 85.2765 65.4871C85.1752 64.9922 85.1256 64.4839 85.1256 63.9629C85.1256 63.4425 85.1752 62.9297 85.2765 62.4266C85.3765 61.9221 85.5491 61.4775 85.7918 61.0915C86.0351 60.7049 86.3593 60.3902 86.7625 60.1463C87.1657 59.903 87.6695 59.7813 88.274 59.7813C88.8778 59.7813 89.3854 59.903 89.7975 60.1463C90.209 60.3902 90.5364 60.7049 90.7797 61.0915C91.023 61.4775 91.1956 61.9221 91.2963 62.4266C91.3975 62.9297 91.4472 63.4425 91.4472 63.9629C91.4472 64.4839 91.3975 64.9922 91.2963 65.4871ZM93.1861 58.9629C92.5975 58.3667 91.8886 57.9055 91.0574 57.5775C90.2256 57.2501 89.2975 57.0864 88.274 57.0864C87.2491 57.0864 86.3249 57.2501 85.502 57.5775C84.6797 57.9055 83.9746 58.3667 83.3867 58.9629C82.7982 59.5584 82.3453 60.2813 82.0262 61.1291C81.7071 61.9769 81.5479 62.9221 81.5479 63.9629C81.5479 65.0043 81.7071 65.9444 82.0262 66.7845C82.3453 67.624 82.7982 68.3418 83.3867 68.938C83.9746 69.5342 84.6797 69.9922 85.502 70.3106C86.3249 70.6297 87.2491 70.789 88.274 70.789C89.2975 70.789 90.2256 70.6297 91.0574 70.3106C91.8886 69.9922 92.5975 69.5342 93.1861 68.938C93.7733 68.3418 94.2275 67.624 94.5466 66.7845C94.865 65.9444 95.0249 65.0043 95.0249 63.9629C95.0249 62.9221 94.865 61.9769 94.5466 61.1291C94.2275 60.2813 93.7733 59.5584 93.1861 58.9629Z" fill="black" fill-opacity="0.25"/>
<path fill-rule="evenodd" clip-rule="evenodd" d="M114.371 58.1439C113.95 57.7745 113.446 57.5057 112.859 57.3375C112.271 57.1707 111.633 57.0859 110.945 57.0859C110.038 57.0859 109.253 57.3044 108.59 57.7407C107.925 58.1777 107.402 58.6821 107.015 59.2522C106.662 58.4464 106.146 57.884 105.466 57.5643C104.785 57.2458 104.034 57.0859 103.211 57.0859C102.355 57.0859 101.594 57.2713 100.932 57.6401C100.268 58.0095 99.7012 58.5299 99.2311 59.2019H99.1808V57.4388H95.8057V70.4611H99.3827V62.905C99.3827 62.2668 99.4745 61.7503 99.6592 61.3554C99.8439 60.9611 100.067 60.6585 100.327 60.4484C100.587 60.2388 100.856 60.0955 101.134 60.0203C101.41 59.9452 101.633 59.9076 101.801 59.9076C102.371 59.9076 102.804 60.0038 103.098 60.1974C103.392 60.3898 103.602 60.6464 103.728 60.9656C103.853 61.2847 103.925 61.6331 103.942 62.0101C103.958 62.3885 103.967 62.7707 103.967 63.1566V70.4611H107.544V63.207C107.544 62.8038 107.573 62.405 107.632 62.0101C107.691 61.6159 107.808 61.263 107.985 60.9528C108.161 60.642 108.404 60.3898 108.715 60.1974C109.025 60.0038 109.434 59.9076 109.937 59.9076C110.441 59.9076 110.839 59.991 111.134 60.1592C111.427 60.3273 111.65 60.5541 111.801 60.8388C111.952 61.1248 112.045 61.4605 112.078 61.8464C112.111 62.2331 112.128 62.6445 112.128 63.0815V70.4611H115.706V61.7458C115.706 60.9063 115.587 60.1885 115.353 59.5917C115.117 58.9961 114.79 58.5133 114.371 58.1439Z" fill="black" fill-opacity="0.25"/>
<path fill-rule="evenodd" clip-rule="evenodd" d="M116.636 70.461H119.016V68.126H116.636V70.461Z" fill="black" fill-opacity="0.25"/>
<path fill-rule="evenodd" clip-rule="evenodd" d="M128.269 65.4235C128.269 65.6248 128.248 65.8942 128.206 66.2305C128.164 66.5662 128.051 66.8968 127.866 67.2248C127.68 67.5522 127.396 67.8337 127.01 68.0681C126.623 68.3038 126.078 68.421 125.373 68.421C125.086 68.421 124.809 68.3955 124.541 68.3458C124.273 68.2955 124.037 68.207 123.836 68.0815C123.635 67.9554 123.475 67.7834 123.357 67.5649C123.24 67.3471 123.18 67.0783 123.18 66.7592C123.18 66.4229 123.24 66.1458 123.357 65.928C123.475 65.7095 123.63 65.5286 123.823 65.3859C124.016 65.2439 124.243 65.1305 124.503 65.0458C124.763 64.9617 125.028 64.8949 125.297 64.8445C125.582 64.7942 125.867 64.7522 126.153 64.7191C126.438 64.6853 126.712 64.6426 126.972 64.5923C127.232 64.542 127.476 64.4796 127.701 64.4031C127.929 64.328 128.119 64.2235 128.269 64.0885V65.4235ZM131.846 67.5649V60.7891C131.846 60 131.67 59.3656 131.317 58.8872C130.964 58.4082 130.512 58.035 129.957 57.7662C129.403 57.498 128.789 57.3171 128.119 57.2248C127.446 57.1324 126.783 57.0859 126.128 57.0859C125.405 57.0859 124.688 57.1573 123.975 57.3C123.261 57.4433 122.618 57.6828 122.047 58.0178C121.477 58.3541 121.006 58.7993 120.637 59.3535C120.267 59.9076 120.057 60.6044 120.007 61.4439H123.584C123.651 60.7388 123.886 60.235 124.289 59.9324C124.692 59.6299 125.246 59.4796 125.951 59.4796C126.27 59.4796 126.569 59.5006 126.846 59.5426C127.123 59.584 127.366 59.6681 127.576 59.7936C127.786 59.9197 127.954 60.0961 128.08 60.3229C128.206 60.5496 128.269 60.856 128.269 61.2426C128.286 61.6121 128.177 61.8936 127.942 62.0866C127.706 62.2789 127.387 62.4267 126.984 62.5273C126.582 62.628 126.119 62.7031 125.599 62.7541C125.078 62.8044 124.549 62.8713 124.012 62.9554C123.475 63.0394 122.942 63.1528 122.413 63.2949C121.884 63.4388 121.414 63.6522 121.002 63.9375C120.59 64.2235 120.254 64.605 119.994 65.084C119.734 65.5624 119.604 66.1713 119.604 66.9101C119.604 67.5821 119.717 68.1617 119.944 68.6477C120.17 69.135 120.486 69.5382 120.889 69.8573C121.292 70.1764 121.761 70.4114 122.299 70.5624C122.836 70.714 123.415 70.7891 124.037 70.7891C124.843 70.7891 125.632 70.6713 126.405 70.4363C127.177 70.2019 127.849 69.7904 128.42 69.2025C128.436 69.4203 128.466 69.6343 128.508 69.8439C128.55 70.0547 128.605 70.2598 128.672 70.4611H132.3C132.131 70.1929 132.014 69.7904 131.947 69.2528C131.88 68.7159 131.846 68.1522 131.846 67.5649Z" fill="black" fill-opacity="0.25"/>
<path fill-rule="evenodd" clip-rule="evenodd" d="M141.619 57.4385V64.2652C141.619 65.592 141.4 66.5448 140.965 67.1238C140.527 67.7034 139.822 67.9926 138.848 67.9926C137.993 67.9926 137.396 67.7283 137.06 67.199C136.724 66.6703 136.556 65.8684 136.556 64.7939V57.4385H132.98V65.4487C132.98 66.255 133.051 66.9894 133.193 67.6525C133.336 68.3162 133.584 68.8786 133.936 69.341C134.29 69.8022 134.772 70.1595 135.384 70.4111C135.998 70.6627 136.783 70.7888 137.74 70.7888C138.496 70.7888 139.235 70.6206 139.957 70.285C140.678 69.9499 141.267 69.4034 141.719 68.648H141.795V70.4608H145.196V57.4385H141.619Z" fill="black" fill-opacity="0.25"/>
<path fill-rule="evenodd" clip-rule="evenodd" d="M41.3081 29.4316H36.3585C35.689 29.4316 35.1406 29.9794 35.1406 30.6488V35.9584C35.1406 36.6278 35.689 37.1756 36.3585 37.1756H41.3081C41.9782 37.1756 42.5253 36.6278 42.5253 35.9584V30.6488C42.5253 29.9794 41.9782 29.4316 41.3081 29.4316Z" fill="black" fill-opacity="0.25"/>
<path fill-rule="evenodd" clip-rule="evenodd" d="M41.3081 63.4795H36.3585C35.689 63.4795 35.1406 64.0273 35.1406 64.6967V70.0062C35.1406 70.6757 35.689 71.2234 36.3585 71.2234H41.3081C41.9782 71.2234 42.5253 70.6757 42.5253 70.0062V64.6967C42.5253 64.0273 41.9782 63.4795 41.3081 63.4795Z" fill="black" fill-opacity="0.25"/>
<path fill-rule="evenodd" clip-rule="evenodd" d="M25.6814 54.2007V49.2504C25.6814 48.581 25.1337 48.0332 24.4643 48.0332H19.1547C18.4853 48.0332 17.9375 48.581 17.9375 49.2504V54.2007C17.9375 54.8701 18.4853 55.4179 19.1547 55.4179H24.4643C25.1337 55.4179 25.6814 54.8701 25.6814 54.2007Z" fill="black" fill-opacity="0.25"/>
<path fill-rule="evenodd" clip-rule="evenodd" d="M58.5116 48.0327H53.2027C52.5326 48.0327 51.9849 48.5805 51.9849 49.2499V54.2002C51.9849 54.8697 52.5326 55.4174 53.2027 55.4174H58.5116C59.1817 55.4174 59.7288 54.8697 59.7288 54.2002V49.2499C59.7288 48.5805 59.1817 48.0327 58.5116 48.0327Z" fill="black" fill-opacity="0.25"/>
<path fill-rule="evenodd" clip-rule="evenodd" d="M27.7829 58.5766C27.3096 58.1034 26.5345 58.1034 26.0612 58.5766L22.3071 62.3308C21.8338 62.8046 21.8338 63.5792 22.3071 64.0524L25.8071 67.553C26.281 68.0263 27.0555 68.0263 27.5294 67.553L31.2835 63.7983C31.7568 63.325 31.7568 62.5499 31.2835 62.0766L27.7829 58.5766Z" fill="black" fill-opacity="0.25"/>
<path fill-rule="evenodd" clip-rule="evenodd" d="M49.8833 43.4767C50.3565 43.9506 51.1317 43.9506 51.6049 43.4767L55.3591 39.7226C55.8329 39.2493 55.8329 38.4742 55.3591 38.0009L51.8591 34.5009C51.3852 34.0277 50.6106 34.0277 50.1368 34.5009L46.3833 38.2551C45.91 38.7283 45.91 39.5028 46.3833 39.9767L49.8833 43.4767Z" fill="black" fill-opacity="0.25"/>
<path fill-rule="evenodd" clip-rule="evenodd" d="M51.6049 58.5766C51.1317 58.1034 50.3565 58.1034 49.8833 58.5766L46.3833 62.0766C45.91 62.5499 45.91 63.325 46.3833 63.7983L50.1368 67.553C50.61 68.0263 51.3852 68.0263 51.8584 67.553L55.3591 64.0524C55.8329 63.5792 55.8329 62.8046 55.3591 62.3308L51.6049 58.5766Z" fill="black" fill-opacity="0.25"/>
<path fill-rule="evenodd" clip-rule="evenodd" d="M27.5292 34.5004C27.056 34.0272 26.2808 34.0272 25.8076 34.5004L22.3076 38.0011C21.8343 38.4743 21.8343 39.2489 22.3076 39.7221L26.0611 43.4762C26.5343 43.9501 27.3095 43.9501 27.7827 43.4762L31.284 39.9762C31.7573 39.503 31.7573 38.7278 31.284 38.2546L27.5292 34.5004Z" fill="black" fill-opacity="0.25"/>
</g>
</svg>
