<svg width="164" height="101" viewBox="0 0 164 101" fill="none" xmlns="http://www.w3.org/2000/svg">
<path fill-rule="evenodd" clip-rule="evenodd" d="M63.3637 45.2528C63.9395 44.7567 64.3688 44.0917 64.5727 43.3586C64.8 42.5477 64.7816 41.6821 64.6051 40.8637C64.4293 40.0681 63.9975 39.3337 63.3873 38.7949C62.7478 38.2191 61.9631 37.8331 61.1612 37.5356C60.2287 37.1974 59.2962 36.856 58.3625 36.5172C57.9185 36.3471 57.4682 36.1611 57.1026 35.8497C56.823 35.6153 56.6242 35.286 56.5625 34.9255C56.4924 34.5191 56.5153 34.0796 56.7172 33.7114C56.8707 33.4204 57.1198 33.1904 57.4051 33.0293C57.8414 32.7802 58.3434 32.6726 58.8402 32.6305C59.879 32.5548 60.9344 32.7223 61.8949 33.1242C62.6236 33.4197 63.2899 33.8471 63.9147 34.3204C63.916 33.3942 63.916 32.4681 63.9147 31.5414C62.9153 30.8911 61.7593 30.5019 60.5809 30.3407C59.5249 30.2019 58.4376 30.2095 57.4013 30.4745C56.5803 30.6828 55.7879 31.0554 55.1606 31.6325C54.4701 32.2573 54.0306 33.1446 53.9389 34.0707C53.8478 35.0573 53.9956 36.1006 54.5344 36.949C54.9332 37.5802 55.5242 38.0681 56.1707 38.4312C57.0217 38.9184 57.9657 39.2 58.8809 39.5388C59.6338 39.8191 60.4134 40.0503 61.1102 40.4611C61.509 40.6955 61.8714 41.0369 62.0198 41.486C62.1663 41.9382 62.1695 42.4465 61.9943 42.8911C61.837 43.2981 61.5071 43.6178 61.1236 43.8165C60.4485 44.1656 59.6682 44.2401 58.9185 44.2286C57.144 44.2076 55.4198 43.5063 54.0472 42.3987C54.044 43.3407 54.0478 44.2821 54.0453 45.2235C55.1892 46.0089 56.5606 46.4025 57.9281 46.556C59.0236 46.6726 60.144 46.6337 61.2121 46.3509C61.9943 46.1407 62.7497 45.7879 63.3637 45.2528Z" fill="black" fill-opacity="0.25"/>
<path fill-rule="evenodd" clip-rule="evenodd" d="M127.288 45.5297C127.911 45.0992 128.418 44.4953 128.709 43.7947C129.056 42.9743 129.089 42.0552 128.961 41.1839C128.841 40.3851 128.493 39.6164 127.932 39.0316C127.324 38.3839 126.527 37.952 125.711 37.624C124.795 37.2788 123.872 36.9533 122.953 36.6144C122.393 36.4106 121.811 36.2081 121.358 35.8074C120.773 35.2966 120.664 34.3718 121.011 33.6972C121.344 33.0788 122.049 32.7864 122.71 32.6724C123.946 32.48 125.233 32.6832 126.372 33.1928C127.031 33.4832 127.635 33.8788 128.209 34.3093C128.214 33.3851 128.209 32.4603 128.211 31.5361C126.88 30.6673 125.279 30.2609 123.698 30.2469C122.428 30.217 121.118 30.4775 120.038 31.1692C119.363 31.6023 118.803 32.231 118.502 32.9788C118.254 33.5756 118.174 34.2329 118.213 34.8749C118.246 35.5826 118.427 36.2934 118.803 36.8998C119.18 37.5132 119.74 37.9953 120.356 38.359C121.025 38.7603 121.762 39.0253 122.495 39.2845C123.251 39.566 124.022 39.8106 124.765 40.1278C125.219 40.3335 125.683 40.5641 126.013 40.9501C126.388 41.3851 126.481 42.0036 126.381 42.5558C126.3 43.0272 126 43.4457 125.597 43.6985C125.076 44.0335 124.452 44.1571 123.844 44.2042C123.244 44.2386 122.64 44.2138 122.049 44.1062C120.685 43.8724 119.406 43.245 118.331 42.382C118.327 43.3234 118.332 44.2648 118.328 45.2062C119.171 45.7947 120.155 46.1539 121.154 46.3737C122.357 46.6272 123.609 46.6877 124.825 46.4877C125.697 46.3393 126.558 46.0425 127.288 45.5297Z" fill="black" fill-opacity="0.25"/>
<path fill-rule="evenodd" clip-rule="evenodd" d="M144.436 39.4391C143.929 38.7264 143.185 38.2187 142.402 37.8506C141.547 37.4614 140.647 37.185 139.77 36.8512C139.022 36.5588 138.208 36.362 137.573 35.8461C136.989 35.378 136.845 34.5098 137.115 33.8346C137.257 33.485 137.535 33.206 137.861 33.0219C138.309 32.7659 138.826 32.6557 139.338 32.6162C140.345 32.5487 141.368 32.7111 142.303 33.0907C143.049 33.3907 143.734 33.8206 144.37 34.3073C144.37 33.4136 144.37 32.5194 144.37 31.6251C144.376 31.5639 144.356 31.5047 144.298 31.4805C142.911 30.6092 141.253 30.2206 139.624 30.2474C138.826 30.2436 138.026 30.376 137.275 30.6442C136.44 30.9467 135.66 31.4499 135.129 32.1697C134.656 32.7977 134.407 33.5773 134.378 34.3601C134.348 35.2009 134.491 36.069 134.917 36.8053C135.308 37.4913 135.929 38.0194 136.609 38.4079C137.456 38.8983 138.399 39.1792 139.312 39.5181C140.08 39.8028 140.876 40.0385 141.585 40.4595C141.973 40.6888 142.323 41.02 142.474 41.455C142.629 41.9149 142.631 42.4334 142.454 42.8881C142.303 43.2716 141.997 43.576 141.642 43.7754C140.957 44.1512 140.154 44.2302 139.385 44.2168C137.606 44.1996 135.877 43.4939 134.501 42.3824C134.508 43.3264 134.484 44.2729 134.513 45.2155C135.268 45.7461 136.146 46.0818 137.036 46.3079C138.004 46.5448 139.006 46.6429 140.001 46.5945C140.893 46.5493 141.787 46.3773 142.605 46.0111C143.368 45.6729 144.063 45.1448 144.529 44.4455C144.993 43.7544 145.212 42.9143 145.196 42.0862C145.206 41.1576 144.988 40.1996 144.436 39.4391Z" fill="black" fill-opacity="0.25"/>
<path fill-rule="evenodd" clip-rule="evenodd" d="M95.3857 46.621C95.3876 41.249 95.3869 35.8777 95.3857 30.5064C94.5226 30.507 93.6589 30.507 92.7965 30.507C92.7927 33.8764 92.7984 37.2465 92.7933 40.6166C89.171 37.1662 85.5557 33.7089 81.936 30.2573C81.9373 35.6248 81.9341 40.9924 81.9373 46.3592C82.799 46.3611 83.6608 46.3561 84.5226 46.3618C84.5341 42.9357 84.5213 39.5089 84.5296 36.0834C85.7162 37.2153 86.8838 38.3688 88.0646 39.5083C90.5035 41.8796 92.9468 44.2478 95.3857 46.621Z" fill="black" fill-opacity="0.25"/>
<path fill-rule="evenodd" clip-rule="evenodd" d="M26.6519 42.2255C26.5564 42.7663 26.2335 43.2625 25.7698 43.5599C25.2258 43.9166 24.5589 44.0211 23.9188 44.0281C22.7921 44.0275 21.6653 44.0287 20.5379 44.0268C20.5379 42.4848 20.5386 40.9421 20.5379 39.4001C21.6647 39.3982 22.7914 39.4007 23.9182 39.3988C24.3634 39.3918 24.8131 39.4472 25.2354 39.5937C25.6978 39.751 26.1233 40.0485 26.3793 40.4714C26.6972 40.9912 26.7596 41.6345 26.6519 42.2255ZM22.8825 32.8389C23.4335 32.8402 23.9901 32.8319 24.5335 32.944C25.0143 33.0421 25.4991 33.2466 25.8175 33.6332C26.1793 34.065 26.2691 34.658 26.2303 35.2039C26.1991 35.7007 26.0105 36.2052 25.629 36.5396C25.1112 36.995 24.3972 37.1262 23.7284 37.1587C22.6666 37.1676 21.6048 37.1548 20.5436 37.165C20.5315 35.7236 20.5417 34.2816 20.5379 32.8396C21.3201 32.8383 22.101 32.8396 22.8825 32.8389ZM29.0373 40.3096C28.6978 39.4918 28.071 38.7931 27.2812 38.388C27.1322 38.3058 26.9653 38.2599 26.8226 38.1663C27.6882 37.8275 28.3322 37.0517 28.6143 36.1784C28.88 35.365 28.8787 34.4765 28.6901 33.6466C28.5169 32.9077 28.115 32.2217 27.5366 31.7281C26.8277 31.1122 25.915 30.7854 24.9997 30.6313C24.036 30.4631 23.0551 30.516 22.0812 30.5071C20.6952 30.5071 19.3105 30.5071 17.9245 30.5077C17.9233 35.7912 17.9233 41.0752 17.9245 46.3593C19.7647 46.3599 21.6054 46.3593 23.4456 46.3599C24.2825 46.3727 25.1284 46.3447 25.9443 46.1389C26.8914 45.9084 27.8099 45.4345 28.4296 44.665C28.9793 43.9937 29.2608 43.1351 29.3207 42.2771C29.3793 41.6109 29.3016 40.9268 29.0373 40.3096Z" fill="black" fill-opacity="0.25"/>
<path fill-rule="evenodd" clip-rule="evenodd" d="M44.4465 46.0234C45.4899 45.561 46.3771 44.7521 46.9179 43.7451C47.5446 42.5947 47.7663 41.2622 47.7453 39.9635C47.7453 36.8113 47.7453 33.6591 47.7446 30.5075C46.8497 30.5068 45.9555 30.5068 45.0612 30.5075C45.0586 33.5349 45.0606 36.5623 45.0599 39.589C45.0688 40.3731 45.0058 41.168 44.7637 41.9177C44.558 42.5482 44.2026 43.1508 43.6631 43.5514C43.0204 44.0419 42.1892 44.21 41.395 44.2056C40.6134 44.2068 39.802 44.0355 39.1669 43.5584C38.5236 43.0814 38.1402 42.333 37.9574 41.5673C37.7192 40.6279 37.7593 39.6514 37.7574 38.6909C37.7574 35.9635 37.758 33.2349 37.7574 30.5068C36.8625 30.5068 35.9676 30.5068 35.0733 30.5075C35.0707 33.6431 35.0733 36.7782 35.072 39.9138C35.0618 40.8049 35.1567 41.703 35.4147 42.5572C35.644 43.3056 36.0032 44.0196 36.5102 44.6177C36.9351 45.1272 37.4663 45.5457 38.0523 45.8578C38.8504 46.2852 39.7453 46.5081 40.644 46.5852C41.9293 46.6884 43.2599 46.5527 44.4465 46.0234Z" fill="black" fill-opacity="0.25"/>
<path fill-rule="evenodd" clip-rule="evenodd" d="M71.6227 30.5044C71.6132 35.7891 71.6202 41.0745 71.6196 46.3598C72.5157 46.3547 73.4126 46.3687 74.3087 46.3528C74.2966 41.0713 74.3087 35.7885 74.303 30.5069C73.4094 30.505 72.5157 30.5101 71.6227 30.5044Z" fill="black" fill-opacity="0.25"/>
<path fill-rule="evenodd" clip-rule="evenodd" d="M112.109 43.945C109.794 43.9456 107.478 43.9456 105.163 43.945C105.161 42.3125 105.161 40.6794 105.163 39.0462C107.239 39.0456 109.315 39.0462 111.391 39.0462C111.393 38.2603 111.393 37.4755 111.391 36.6902C109.315 36.6896 107.239 36.6915 105.163 36.6896C105.161 35.4259 105.161 34.1622 105.163 32.8978C107.478 32.8972 109.794 32.8985 112.11 32.8978C112.111 32.1004 112.111 31.3036 112.11 30.5068C108.916 30.5042 105.723 30.5125 102.529 30.5029C102.515 31.5048 102.528 32.5074 102.523 33.5099C102.527 37.7946 102.517 42.0787 102.528 46.3622C105.722 46.3558 108.916 46.3609 112.11 46.3596C112.111 45.5545 112.112 44.7501 112.109 43.945Z" fill="black" fill-opacity="0.25"/>
<path fill-rule="evenodd" clip-rule="evenodd" d="M49.6066 54.5809C49.6041 57.8956 49.6085 61.2109 49.6041 64.5262C46.0073 61.1287 42.4143 57.7262 38.8206 54.3262C38.8136 59.6083 38.8187 64.8911 38.8181 70.1733C39.6773 70.1752 40.5366 70.1733 41.3958 70.1733C41.3971 66.8007 41.3964 63.4281 41.3964 60.0542C44.9907 63.5083 48.5754 66.9733 52.1735 70.4223C52.1722 65.1421 52.1735 59.8612 52.1729 54.5809C51.3175 54.5803 50.462 54.5803 49.6066 54.5809Z" fill="black" fill-opacity="0.25"/>
<path fill-rule="evenodd" clip-rule="evenodd" d="M68.1857 62.642C67.5723 62.1216 66.8392 61.7643 66.0882 61.4892C65.1437 61.1465 64.1972 60.8083 63.2526 60.4643C62.7793 60.2822 62.2921 60.0802 61.9277 59.7146C61.457 59.2611 61.3589 58.5185 61.5634 57.9178C61.6895 57.5618 61.9589 57.2688 62.2812 57.0796C62.7112 56.8216 63.2099 56.7083 63.7048 56.6586C64.7449 56.5751 65.8054 56.7337 66.7717 57.1312C67.5035 57.4242 68.1742 57.8503 68.8029 58.3229C68.8042 57.4089 68.8054 56.4955 68.8023 55.5809C67.5462 54.7764 66.0583 54.3809 64.5761 54.3242C63.466 54.2739 62.329 54.4242 61.3125 54.8892C60.6054 55.2115 59.9615 55.6994 59.5226 56.3458C59.0851 56.9809 58.8691 57.756 58.8736 58.5248C58.8596 59.3363 59.0296 60.1675 59.464 60.8618C59.8927 61.5522 60.5532 62.0707 61.266 62.4452C62.0564 62.8701 62.9201 63.1293 63.7589 63.4395C64.4953 63.7095 65.2532 63.9376 65.9424 64.321C66.3424 64.5458 66.7226 64.8637 66.8933 65.3038C67.0551 65.7242 67.0679 66.2013 66.9373 66.6318C66.8054 67.0637 66.4774 67.4153 66.0863 67.6299C65.4125 67.9968 64.6239 68.0771 63.8691 68.0675C62.1003 68.0535 60.3742 67.365 59.0061 66.2611C59.0016 67.1879 59.0099 68.1153 59.001 69.0427C59.3666 69.3127 59.7793 69.5121 60.1946 69.6936C61.1653 70.0987 62.2061 70.3197 63.2532 70.3911C64.264 70.4529 65.2933 70.3987 66.2685 70.1108C67.0507 69.8828 67.8042 69.5076 68.3959 68.9408C68.9596 68.4146 69.3551 67.7146 69.5137 66.9605C69.6787 66.1802 69.6392 65.3611 69.4398 64.5911C69.2392 63.8293 68.787 63.1465 68.1857 62.642Z" fill="black" fill-opacity="0.25"/>
<path fill-rule="evenodd" clip-rule="evenodd" d="M28.5246 70.174C29.4189 70.1747 30.3138 70.1753 31.2087 70.174V54.5817C30.3138 54.5811 29.4189 54.5811 28.5246 54.5811C28.5227 59.7791 28.5234 64.9766 28.5246 70.174Z" fill="black" fill-opacity="0.25"/>
<path fill-rule="evenodd" clip-rule="evenodd" d="M76.495 70.174C77.3855 70.174 78.2772 70.176 79.1676 70.174C79.1683 64.9766 79.1683 59.7791 79.1676 54.5817C78.2772 54.5811 77.3855 54.5817 76.4957 54.5811C76.4937 59.7791 76.4944 64.9766 76.495 70.174Z" fill="black" fill-opacity="0.25"/>
<path fill-rule="evenodd" clip-rule="evenodd" d="M97.6622 64.3326C97.438 65.1759 97.0144 65.981 96.3724 66.5798C95.6475 67.2677 94.6737 67.6435 93.6915 67.7581C93.1749 67.8256 92.6552 67.804 92.1367 67.8072C91.2921 67.8072 90.4475 67.8084 89.603 67.8072C89.6036 64.1798 89.6036 60.5524 89.603 56.9256C90.401 56.9237 91.1991 56.925 91.9959 56.9244C92.5131 56.9288 93.0316 56.9072 93.5482 56.9607C94.4023 57.0435 95.2565 57.3046 95.9565 57.8123C96.566 58.2447 97.0412 58.853 97.3501 59.532C97.6717 60.2358 97.8303 61.0046 97.8826 61.774C97.9386 62.6314 97.8826 63.5008 97.6622 64.3326ZM97.6603 55.9696C96.3533 55.0205 94.7227 54.6027 93.1227 54.581C91.0622 54.5804 89.0023 54.5804 86.9424 54.581C86.9412 59.7791 86.9418 64.9766 86.9418 70.174C89.0036 70.1759 91.0654 70.174 93.1265 70.1753C94.1807 70.1607 95.2386 69.9779 96.2176 69.581C97.4705 69.0804 98.573 68.197 99.3068 67.0626C100.197 65.7148 100.567 64.0823 100.581 62.4823C100.591 61.3632 100.435 60.2339 100.051 59.1791C99.5915 57.9072 98.766 56.7575 97.6603 55.9696Z" fill="black" fill-opacity="0.25"/>
<path fill-rule="evenodd" clip-rule="evenodd" d="M115.713 54.5801C112.538 54.5826 109.362 54.5801 106.187 54.5814C106.186 59.7788 106.186 64.9763 106.187 70.1737C109.362 70.175 112.539 70.1743 115.714 70.1737C115.715 69.3852 115.715 68.5966 115.714 67.8075C113.414 67.8075 111.113 67.8081 108.813 67.8075V62.9794C110.875 62.9743 112.938 62.9864 114.999 62.9731C114.992 62.2056 114.998 61.438 114.996 60.6705C112.936 60.6705 110.876 60.6686 108.816 60.6712C108.809 59.4228 108.814 58.1737 108.814 56.9247C111.113 56.9247 113.414 56.9253 115.714 56.9247C115.714 56.1431 115.717 55.3616 115.713 54.5801Z" fill="black" fill-opacity="0.25"/>
<path fill-rule="evenodd" clip-rule="evenodd" d="M126.315 61.6353C126.315 60.0494 126.315 58.464 126.315 56.8774C127.061 56.8767 127.807 56.8774 128.553 56.8774C129.129 56.8812 129.715 56.8443 130.278 56.9959C130.836 57.1334 131.367 57.45 131.681 57.9417C132.016 58.457 132.097 59.1022 132.008 59.7016C131.936 60.1761 131.715 60.6322 131.358 60.9576C130.832 61.4404 130.098 61.6232 129.4 61.6353H126.315ZM132.511 63.329C133.146 63.0392 133.701 62.5666 134.056 61.9634C134.531 61.1595 134.686 60.2067 134.678 59.285C134.694 58.3838 134.501 57.4595 134.021 56.6882C133.619 56.0328 133.01 55.515 132.318 55.185C131.444 54.7557 130.46 54.5997 129.493 54.5806C127.547 54.5806 125.6 54.5812 123.654 54.5806C123.652 59.7787 123.653 64.9761 123.653 70.1736C124.539 70.1755 125.425 70.1716 126.31 70.1761C126.322 68.0678 126.311 65.9589 126.315 63.8506C126.938 63.8494 127.561 63.8506 128.185 63.85C130.01 65.9551 131.826 68.0672 133.65 70.1736C134.661 70.1736 135.673 70.1755 136.685 70.1729C134.809 68.0315 132.928 65.8946 131.05 63.7551C131.552 63.6729 132.049 63.5455 132.511 63.329Z" fill="black" fill-opacity="0.25"/>
<mask id="mask0_0_136" style="mask-type:luminance" maskUnits="userSpaceOnUse" x="0" y="0" width="164" height="101">
<path fill-rule="evenodd" clip-rule="evenodd" d="M0 100.299H163.134V0.356445H0V100.299Z" fill="white"/>
</mask>
<g mask="url(#mask0_0_136)">
</g>
</svg>
