<svg width="164" height="100" viewBox="0 0 164 100" fill="none" xmlns="http://www.w3.org/2000/svg">
<path fill-rule="evenodd" clip-rule="evenodd" d="M18.514 55.1207L25.6503 39.4321C17.4146 42.7837 15.1401 48.0468 18.514 55.1207Z" fill="black" fill-opacity="0.25"/>
<path fill-rule="evenodd" clip-rule="evenodd" d="M33.4672 37.9585C28.0793 43.7591 23.4417 49.9897 20.1558 56.9903C20.4857 57.3878 20.8819 57.7406 21.3277 58.0489C24.2481 60.0553 29.3481 60.0591 32.6175 57.4432C36.2226 54.3814 37.3653 47.575 37.5685 39.3419C37.5857 38.6814 37.5965 38.0132 37.6023 37.3349C37.5214 35.603 34.8882 36.0597 33.4672 37.9585Z" fill="black" fill-opacity="0.25"/>
<path fill-rule="evenodd" clip-rule="evenodd" d="M43.4288 49.8242C44.9638 43.9994 52.5498 41.3357 53.2963 44.8783C54.225 48.8866 48.9173 50.4038 43.4288 49.8242ZM56.9288 43.6764C55.0135 36.0267 40.4033 41.2847 39.6294 49.6974C38.1728 57.5471 44.0963 61.5452 53.2766 58.1146L53.6963 54.535C50.3161 56.979 44.3683 57.6847 43.3059 52.7102C50.9485 52.4917 58.2371 51.3267 56.9288 43.6764Z" fill="black" fill-opacity="0.25"/>
<path fill-rule="evenodd" clip-rule="evenodd" d="M71.1558 39.9711C66.9182 39.8647 64.6195 41.7577 63.2545 44.6086L63.9074 40.5914H60.1526L56.9507 59.2379H60.6086C61.3278 55.0252 61.8494 50.6169 64.1354 46.9914C65.7698 44.5316 68.6099 42.78 71.059 43.2035C72.3322 43.4972 73.0399 44.2418 72.6583 46.8927L70.4698 59.3679H74.194L76.4469 47.2851C77.1641 41.9303 74.3806 40.1762 71.1558 39.9711Z" fill="black" fill-opacity="0.25"/>
<path fill-rule="evenodd" clip-rule="evenodd" d="M91.4054 40.4404L84.2143 53.313L81.3901 40.5411H77.7271L82.3653 59.6309H83.7755L95.3035 40.4404H91.4054Z" fill="black" fill-opacity="0.25"/>
<path fill-rule="evenodd" clip-rule="evenodd" d="M108.48 43.5666C108.413 45.5443 107.922 47.7768 107.236 50.0207C106.697 52.2717 103.807 56.843 99.9414 56.6742C98.2942 56.8488 93.684 54.4379 97.7586 47.2303C99.707 44.273 104.344 41.9539 108.48 43.5666ZM95.6414 44.4749C90.6656 50.0539 92.0108 58.3214 98.1949 59.6647C102.329 60.136 105.522 57.9513 106.867 54.7921L105.891 59.2284H109.453L112.648 41.5507C106.604 38.7182 100.882 39.1475 95.6414 44.4749Z" fill="black" fill-opacity="0.25"/>
<path fill-rule="evenodd" clip-rule="evenodd" d="M116.792 53.4858L118.63 43.5609H124.513L125.753 40.5285H119.045L120.193 34.645L115.918 36.7584L113.116 54.4972C112.932 59.4157 117.032 59.8922 120.514 59.138L121.204 56.1979C117.542 57.2285 116.218 56.0871 116.792 53.4858Z" fill="black" fill-opacity="0.25"/>
<path fill-rule="evenodd" clip-rule="evenodd" d="M139.755 49.9307C138.949 53.6128 135.535 56.6026 132.136 56.6084C128.738 56.616 126.634 53.6326 127.439 49.9511C128.245 46.2708 131.658 43.2784 135.058 43.2727C138.456 43.2676 140.56 46.2504 139.755 49.9307ZM135.239 39.7988C129.701 39.7988 124.465 44.2842 123.555 49.8116C122.644 55.3409 126.399 59.8262 131.937 59.8262C137.476 59.8262 142.711 55.3409 143.622 49.8116C144.534 44.2842 140.776 39.7988 135.239 39.7988Z" fill="black" fill-opacity="0.25"/>
<path fill-rule="evenodd" clip-rule="evenodd" d="M147.793 41.332H145.107L144.992 41.9136H146.037L145.482 44.8359L146.113 44.832L146.667 41.9136H147.678L147.793 41.332Z" fill="black" fill-opacity="0.25"/>
<path fill-rule="evenodd" clip-rule="evenodd" d="M151.585 41.314L149.749 44.0783L148.914 41.3509L148.359 41.3394L147.555 44.842L148.085 44.8439L148.669 42.5318L149.356 44.9095H149.867L151.449 42.5668L151.26 44.8528H151.814L152.077 41.3159L151.585 41.314Z" fill="black" fill-opacity="0.25"/>
<mask id="mask0_0_117" style="mask-type:luminance" maskUnits="userSpaceOnUse" x="0" y="0" width="164" height="100">
<path fill-rule="evenodd" clip-rule="evenodd" d="M0 99.9427H163.134V0H0V99.9427Z" fill="white"/>
</mask>
<g mask="url(#mask0_0_117)">
</g>
</svg>
