<svg width="164" height="101" viewBox="0 0 164 101" fill="none" xmlns="http://www.w3.org/2000/svg">
<path fill-rule="evenodd" clip-rule="evenodd" d="M53.5017 58.3077C52.8781 58.1663 52.3794 58.1497 51.9915 58.0433H51.9909C51.8514 58.0051 51.7259 57.9554 51.6138 57.8841C51.4437 57.7898 51.301 57.6299 51.2093 56.7006L47.1412 56.7013C47.0641 57.6478 46.9495 57.8083 46.7979 57.8841C46.6737 57.9561 46.5424 58.0057 46.3991 58.0433H51.1584L46.3991 58.0446C46.0838 58.1287 45.7112 58.1567 45.2418 58.2363C44.773 58.1567 44.3998 58.1287 44.0845 58.0433H44.0819C43.9393 58.0051 43.8087 57.9554 43.6864 57.8841C43.573 57.8274 43.4813 57.5172 43.4093 56.7006C43.3253 55.742 43.2705 54.0866 43.2437 51.3268C43.2354 50.5274 43.2297 49.635 43.2272 48.6401L39.3138 48.6414C39.3348 49.637 39.3488 50.5287 39.3558 51.3268H40.3125L39.3558 51.3274C39.3819 54.0987 39.3253 55.7446 39.2061 56.6994C39.1074 57.4822 38.9667 57.7968 38.7928 57.8841C38.6807 57.9554 38.5902 58.0051 38.501 58.0433H39.3329H38.501C38.2546 58.1497 38.0189 58.1663 37.3673 58.3077C37.0596 58.3847 37.1367 58.7701 37.3291 58.7319C38.4463 58.6548 39.487 58.6159 41.259 58.6159C42.6456 58.6159 43.7928 58.6363 44.7004 58.6758C45.2119 58.6898 45.2323 58.6898 45.7832 58.6758C46.6915 58.6363 47.838 58.6159 49.224 58.6159C50.9966 58.6159 52.4227 58.6548 53.5399 58.7319C53.7323 58.7701 53.8093 58.3847 53.5017 58.3077Z" fill="black" fill-opacity="0.25"/>
<path fill-rule="evenodd" clip-rule="evenodd" d="M120.352 59.0785C121.637 59.0785 122.93 58.6919 124.032 58.0441L115.87 58.0435C117.095 58.7046 118.591 59.0785 120.352 59.0785Z" fill="black" fill-opacity="0.25"/>
<path fill-rule="evenodd" clip-rule="evenodd" d="M60.8867 59.0785C62.1128 59.0785 63.2147 58.6677 64.1644 58.0435L57.0542 58.0441C58.1287 58.7116 59.4198 59.0785 60.8867 59.0785Z" fill="black" fill-opacity="0.25"/>
<path fill-rule="evenodd" clip-rule="evenodd" d="M104.415 59.0785C105.7 59.0785 106.993 58.6919 108.095 58.0441L99.9324 58.0435C101.158 58.7046 102.654 59.0785 104.415 59.0785Z" fill="black" fill-opacity="0.25"/>
<path fill-rule="evenodd" clip-rule="evenodd" d="M146.733 58.3079C146.025 58.1665 145.712 58.1499 145.321 58.0435H144.395H145.321C145.18 58.0053 145.028 57.9556 144.845 57.8843C144.644 57.8174 144.189 57.39 143.546 56.6996H143.545C142.442 55.5136 140.786 53.5569 138.917 51.327C138.193 50.4633 137.437 49.5582 136.668 48.641L135.298 48.6403H136.668C136.581 48.5372 136.494 48.4333 136.407 48.3289C139.698 45.1403 141.342 43.7518 142.288 43.2677L138.945 43.2671C139.102 43.4397 139.142 43.6091 139.142 43.7435C139.142 44.0907 137.832 45.6703 135.096 48.4442C135.029 48.5123 134.96 48.5773 134.89 48.6403C134.326 49.1493 133.706 49.4843 133.054 49.4843V48.6403H129.231C129.227 49.641 129.22 50.5327 129.211 51.327C129.181 54.2079 129.126 55.8047 129.052 56.7002L133.209 56.7008C133.124 55.6766 133.086 53.9442 133.062 51.327C133.059 51.0321 133.057 50.7263 133.054 50.4098C133.581 50.5072 133.938 50.718 134.533 51.3276H134.533C134.637 51.4333 134.747 51.5505 134.865 51.6811C136.926 54.0505 138.212 55.7314 138.849 56.7008C139.165 57.1811 139.322 57.4868 139.335 57.6142C139.335 57.7964 139.292 57.9352 139.104 58.0435H139.103C138.893 58.1645 138.503 58.2467 137.794 58.3079C137.524 58.3467 137.601 58.7703 137.794 58.7321C138.757 58.655 140.452 58.6161 142.379 58.6161C144.267 58.6161 145.77 58.655 146.733 58.7321C146.926 58.7703 147.08 58.3849 146.733 58.3079Z" fill="black" fill-opacity="0.25"/>
<path fill-rule="evenodd" clip-rule="evenodd" d="M24.4982 58.3076C23.8473 58.1662 23.5498 58.1496 23.2536 58.0432C23.1473 58.005 23.0409 57.9553 22.9186 57.884C22.767 57.7897 22.6995 57.6305 22.6562 56.7005C22.6148 55.8133 22.5957 54.226 22.5473 51.3267L18.6409 51.3273C18.6339 54.2126 18.5855 55.8076 18.5084 56.7005H21.7511L18.5084 56.7012C18.4269 57.6477 18.3122 57.8082 18.1798 57.884C18.0575 57.9553 17.9269 58.005 17.7842 58.0432H20.5192H17.7842C17.3893 58.1496 16.9046 58.1662 16.2536 58.3076C15.9441 58.3846 16.0218 58.77 16.2142 58.7318C17.1778 58.6547 18.6798 58.6158 20.6071 58.6158C22.3791 58.6158 23.4199 58.6547 24.5371 58.7318C24.7294 58.77 24.8065 58.3846 24.4982 58.3076Z" fill="black" fill-opacity="0.25"/>
<path fill-rule="evenodd" clip-rule="evenodd" d="M135.174 58.3077C134.523 58.1663 134.162 58.1497 133.834 58.0434H131.089H133.834C133.715 58.0051 133.601 57.9555 133.479 57.8841C133.356 57.823 133.271 57.4516 133.208 56.7013L129.053 56.7007C128.971 57.6892 128.864 57.8211 128.739 57.8841C128.617 57.9555 128.487 58.0051 128.344 58.0434C127.949 58.1497 127.464 58.1663 126.813 58.3077C126.543 58.3848 126.582 58.7701 126.774 58.7319C127.776 58.6548 129.125 58.616 131.051 58.616C132.824 58.616 134.095 58.6548 135.213 58.7319C135.367 58.7701 135.444 58.3848 135.174 58.3077Z" fill="black" fill-opacity="0.25"/>
<path fill-rule="evenodd" clip-rule="evenodd" d="M28.4674 57.8841C28.3451 57.9555 28.2463 58.0051 28.1521 58.0434H30.9113H28.1521C27.8896 58.1497 27.6546 58.1663 27.003 58.3077C26.6947 58.3848 26.7718 58.7701 26.9648 58.7319C28.082 58.6548 29.1221 58.616 30.8947 58.616C32.8209 58.616 34.054 58.6548 35.017 58.7319C35.2094 58.7701 35.2871 58.3848 34.9788 58.3077C34.3272 58.1663 33.9884 58.1497 33.6705 58.0434H33.6699C33.5559 58.0051 33.4438 57.9555 33.3215 57.8841C33.2126 57.8217 33.117 57.5714 33.0406 56.7007H28.8642C28.7667 57.4873 28.6279 57.7962 28.4674 57.8841Z" fill="black" fill-opacity="0.25"/>
<path fill-rule="evenodd" clip-rule="evenodd" d="M65.8182 55.8411C65.4838 56.1596 65.0965 56.459 64.6768 56.6997H64.9144L64.6768 56.7004C64.08 57.0418 63.415 57.2666 62.736 57.2666C61.9526 57.2666 61.2558 57.0653 60.6526 56.701C59.0997 55.7628 58.1672 53.7481 57.9628 51.3265L55.4965 51.3258H57.9628C57.9341 50.9889 57.9201 50.6443 57.9201 50.2934C57.9201 49.7093 57.9354 49.1577 57.9685 48.6399C58.1519 45.752 58.8761 43.9093 60.4749 43.2666L57.8965 43.2679C55.8316 44.3984 54.3035 46.2972 53.7519 48.6399C53.6048 49.2641 53.5271 49.9207 53.5271 50.6016C53.5271 50.8469 53.5341 51.0883 53.5475 51.3265C53.6717 53.5048 54.3589 55.3539 55.5003 56.7004C55.95 57.2297 56.4704 57.6813 57.0545 58.0437L64.164 58.043C64.7468 57.6602 65.273 57.1978 65.7341 56.7004H65.7347C65.8437 56.5813 65.9481 56.4628 66.0494 56.3424C66.0882 56.3042 66.3583 56.3813 66.3583 56.4965C66.3634 56.5634 66.371 56.6309 66.3787 56.6997C66.429 57.1367 66.5137 57.6106 66.6093 58.043H69.0424H66.6093C66.6895 58.4067 66.7774 58.7418 66.8589 59.001C66.8965 59.194 67.0895 59.2711 67.2061 59.194C68.1392 58.794 70.0532 58.3934 71.4761 58.043H71.4768C71.6972 57.9889 71.9074 57.9354 72.0984 57.8838C72.2914 57.8449 72.4074 57.5367 72.0602 57.5367C71.0583 57.5367 70.8271 57.3061 70.48 56.9201C70.4392 56.8653 70.4003 56.7997 70.3647 56.7004C70.2061 56.2545 70.1086 55.1379 70.1309 51.3271L66.3086 51.3265L66.2417 54.8781C66.2417 55.3023 66.1265 55.4953 65.8182 55.8411Z" fill="black" fill-opacity="0.25"/>
<path fill-rule="evenodd" clip-rule="evenodd" d="M47.2585 51.3273C47.2527 54.2126 47.2132 55.8076 47.1406 56.7005L51.2094 56.6993C51.1215 55.812 51.0801 54.2254 51.1043 51.3267L47.2585 51.3273Z" fill="black" fill-opacity="0.25"/>
<path fill-rule="evenodd" clip-rule="evenodd" d="M118.162 43.2669H118.162C118.682 42.8528 119.346 42.6261 120.197 42.6261C120.881 42.6261 121.41 42.8694 121.815 43.2675H121.816C122.806 44.2401 123.055 46.1312 122.972 47.6344C122.972 47.7121 120.698 47.6732 120.43 47.6732C117.963 47.7121 117.347 47.7503 116.383 47.7503C116.641 45.7121 117.107 44.1057 118.162 43.2669ZM126.324 54.9942C125.64 55.856 124.268 56.4662 122.862 56.7H122.855C122.442 56.7694 122.025 56.8051 121.624 56.8051C121.209 56.8051 120.818 56.7694 120.452 56.6993H120.45C117.926 56.2178 116.545 54.1471 116.251 51.3274H113.467L116.251 51.3267C116.211 50.9446 116.191 50.5477 116.191 50.1395C116.191 49.3993 116.191 49.1751 116.279 48.6414L113.685 48.6407L116.279 48.6401C116.288 48.5911 116.296 48.5382 116.306 48.4821C117.27 48.4433 117.771 48.4433 120.43 48.4433C123.858 48.4433 126.826 48.6363 127.094 48.0204C127.445 47.2465 126.953 44.8535 124.99 43.2662H124.989C123.923 42.4032 122.424 41.7783 120.39 41.7783C118.489 41.7783 116.785 42.3197 115.405 43.2669H115.404C113.631 44.4853 112.394 46.372 111.965 48.6401C111.855 49.2197 111.798 49.8235 111.798 50.4471C111.798 50.7446 111.809 51.0382 111.832 51.3274C111.995 53.4458 112.755 55.3235 114.09 56.7C114.599 57.2261 115.194 57.6777 115.869 58.0433H124.032C124.663 57.6732 125.232 57.2178 125.7 56.7H125.701C126.108 56.249 126.439 55.7528 126.671 55.2255C126.787 54.9554 126.402 54.8395 126.324 54.9942Z" fill="black" fill-opacity="0.25"/>
<path fill-rule="evenodd" clip-rule="evenodd" d="M66.3187 50.7561L66.3079 51.3268H70.1302C70.1308 51.1917 70.1321 51.0522 70.1327 50.9102L70.1518 48.6401H66.2869C66.3149 49.2535 66.3264 49.9535 66.3187 50.7561Z" fill="black" fill-opacity="0.25"/>
<path fill-rule="evenodd" clip-rule="evenodd" d="M107.035 47.6349C107.035 47.7119 104.762 47.6737 104.493 47.6737C102.026 47.7119 101.41 47.7508 100.447 47.7508C100.705 45.7126 101.17 44.1056 102.224 43.2673H102.226C102.746 42.8533 103.409 42.6266 104.261 42.6266C104.943 42.6266 105.473 42.8699 105.879 43.268C106.87 44.24 107.117 46.1317 107.035 47.6349ZM109.053 43.2661H109.052C107.986 42.4036 106.487 41.7788 104.454 41.7788C102.552 41.7788 100.847 42.3202 99.4683 43.2673H99.4671C97.6944 44.4852 96.4581 46.3724 96.0282 48.6406C95.9187 49.2202 95.8613 49.824 95.8613 50.4476C95.8613 50.7451 95.8728 51.038 95.8951 51.3272C96.0581 53.4463 96.818 55.324 98.153 56.7005C98.6626 57.2259 99.2562 57.6782 99.9327 58.0431H108.096C108.726 57.6731 109.295 57.2177 109.763 56.7005H109.764C110.172 56.2495 110.502 55.7533 110.734 55.2253C110.85 54.9559 110.465 54.84 110.388 54.9941C109.703 55.8565 108.33 56.4667 106.924 56.7005H106.918C106.505 56.7693 106.089 56.8056 105.687 56.8056C105.272 56.8056 104.882 56.7693 104.515 56.6998H104.512C101.989 56.2183 100.608 54.147 100.314 51.3272H97.5301L100.314 51.3266C100.274 50.9444 100.254 50.5482 100.254 50.1393C100.254 49.3998 100.254 49.175 100.342 48.6412L97.7486 48.6406H100.342C100.351 48.5909 100.36 48.5387 100.37 48.4826C101.333 48.4438 101.834 48.4438 104.493 48.4438C107.922 48.4438 110.889 48.6368 111.158 48.0202C111.507 47.2463 111.015 44.854 109.053 43.2661Z" fill="black" fill-opacity="0.25"/>
<path fill-rule="evenodd" clip-rule="evenodd" d="M33.245 46.0171C34.1692 44.9763 34.9016 44.4757 36.4813 44.4757C38.5622 44.4757 39.2169 45.7859 39.294 47.789C39.301 48.0814 39.3074 48.3655 39.3131 48.6406L43.2271 48.64C43.2252 48.0126 43.2239 47.3445 43.2239 46.633C43.2239 45.2712 42.8902 44.096 42.1329 43.2674L35.1717 43.268C34.3768 43.8667 33.6316 44.633 32.9367 45.4776C32.8978 45.5158 32.6284 45.4776 32.5895 45.3234C32.4023 44.5738 32.0118 43.8553 31.4609 43.2674H24.6099C23.887 43.8604 23.1908 44.596 22.4953 45.4005C22.4564 45.4776 22.1481 45.4005 22.1481 45.2852C22.1647 44.6738 22.2023 43.9413 22.2462 43.2674C22.3042 42.3718 22.3736 41.5801 22.4176 41.3158C22.4176 41.1617 22.2252 40.9311 21.994 41.1234C21.1462 41.7859 19.7889 42.6298 18.4227 43.2674H21.1335L18.4227 43.268C17.8016 43.5585 17.1781 43.8062 16.5997 43.9744C16.4456 44.0132 16.3297 44.2833 16.6386 44.3215C17.5634 44.3986 17.8329 44.5527 18.18 44.8617C18.5048 45.154 18.6099 45.6935 18.6354 48.6406C18.6399 49.1827 18.6418 49.8062 18.6418 50.5247C18.6418 50.8031 18.6411 51.0706 18.6405 51.3266L22.5469 51.326C22.5424 51.0693 22.5379 50.8024 22.5335 50.5247L22.4946 48.6406L22.4564 46.7871C22.4564 46.3247 22.5717 46.1324 22.8806 45.7859C23.7284 44.7839 24.6526 44.3604 26.1169 44.3604C28.1201 44.3604 28.8526 45.4394 28.9297 47.8661C28.9367 48.1304 28.9437 48.3884 28.9507 48.6406C28.9768 49.6368 28.994 50.5285 29.0042 51.3266C29.0386 54.1107 28.9813 55.7521 28.8641 56.7005L33.0405 56.6999C32.9602 55.7769 32.9016 54.1578 32.8755 51.3266C32.8679 50.5311 32.8628 49.6394 32.8609 48.6406C32.8602 48.233 32.8596 47.8088 32.8596 47.3648V47.019C32.8596 46.5948 32.9367 46.3636 33.245 46.0171Z" fill="black" fill-opacity="0.25"/>
<path fill-rule="evenodd" clip-rule="evenodd" d="M133.103 43.2669L133.209 31.7223C133.209 31.2981 133.247 29.4484 133.401 28.9478C133.439 28.7937 133.247 28.5242 133.016 28.6784C131.474 29.6414 128.894 30.8357 126.89 31.3752C126.697 31.4141 126.62 31.6828 126.929 31.7223C127.853 31.8376 128.392 31.9918 128.739 32.223C129.111 32.4459 129.232 33.5663 129.24 43.2676C129.241 43.6204 129.241 43.9841 129.241 44.3599C129.241 45.9727 129.238 47.3911 129.231 48.6395L133.055 48.6402V48.4822L133.103 43.2669Z" fill="black" fill-opacity="0.25"/>
<path fill-rule="evenodd" clip-rule="evenodd" d="M45.2947 44.0517C46.1807 44.2064 46.4501 44.437 46.7972 44.7841C47.1227 45.1096 47.2278 45.6829 47.2527 48.6408C47.2578 49.1835 47.2597 49.8077 47.2597 50.5249C47.2597 50.8032 47.259 51.0708 47.2584 51.3268L51.1043 51.3262C51.1068 51.0695 51.1094 50.8026 51.1125 50.5249L51.1374 48.6408L51.1896 44.6682C51.1896 44.1854 51.1947 43.7077 51.2017 43.2676H46.7221C46.1979 43.4631 45.6851 43.6173 45.2176 43.7058C45.0629 43.744 44.9864 43.9746 45.2947 44.0517Z" fill="black" fill-opacity="0.25"/>
<path fill-rule="evenodd" clip-rule="evenodd" d="M48.9547 37.2707C50.5732 37.2707 51.4592 36.2305 51.4592 34.8426C51.4592 33.456 50.4573 32.4541 49.1477 32.4541C47.6445 32.4541 46.5273 33.456 46.5273 35.0745C46.5273 36.3458 47.5675 37.2707 48.9547 37.2707Z" fill="black" fill-opacity="0.25"/>
<path fill-rule="evenodd" clip-rule="evenodd" d="M137.062 42.5484C138.169 42.7134 138.701 42.9943 138.946 43.2663L142.289 43.2669C142.406 43.207 142.513 43.1612 142.61 43.1268C143.381 42.8573 143.882 42.7414 144.806 42.6261C145.115 42.5873 144.96 42.2026 144.806 42.2026C143.804 42.2796 143.612 42.2796 141.686 42.2796C139.759 42.2796 138.063 42.2408 137.062 42.1255C136.869 42.1255 136.792 42.5102 137.062 42.5484Z" fill="black" fill-opacity="0.25"/>
<path fill-rule="evenodd" clip-rule="evenodd" d="M28.1203 41.8169C26.8292 41.8169 25.6891 42.3831 24.6101 43.2672L31.4611 43.2666C30.6521 42.4029 29.4948 41.8169 28.1203 41.8169Z" fill="black" fill-opacity="0.25"/>
<path fill-rule="evenodd" clip-rule="evenodd" d="M50.8426 41.1237C49.9222 41.7568 48.2699 42.6906 46.7222 43.267H51.2018C51.2164 42.4409 51.2413 41.7454 51.2668 41.3931C51.2668 41.239 51.0738 40.9696 50.8426 41.1237Z" fill="black" fill-opacity="0.25"/>
<path fill-rule="evenodd" clip-rule="evenodd" d="M98.0639 42.5487C98.3721 42.4716 98.2568 42.0869 98.0639 42.1258C97.0619 42.2411 96.9467 42.2799 95.0199 42.2799C93.132 42.2799 91.8225 42.2411 90.8205 42.1258C90.6275 42.0869 90.5505 42.5105 90.8205 42.5487C92.2225 42.736 93.0702 42.9481 93.3428 43.2672H93.3435C93.4072 43.3423 93.4396 43.4239 93.4396 43.5124C93.4396 44.0321 92.932 45.6907 91.8568 48.6404H92.8358L91.8568 48.6411C91.5658 49.4404 91.2326 50.334 90.8581 51.3264H90.8575C90.5632 52.1028 90.2428 52.9404 89.8957 53.8385C89.6218 52.9455 89.3543 52.1086 89.097 51.327C88.7721 50.343 88.4645 49.4481 88.1798 48.6404C87.1518 45.7169 86.4416 43.9468 86.4301 43.2672C86.4288 43.1742 86.4403 43.1016 86.4664 43.05C86.6594 42.6646 87.9307 42.7805 88.7396 42.5487C89.0091 42.4716 88.932 42.0869 88.7396 42.1258C87.7377 42.2411 85.7346 42.2799 83.8078 42.2799C81.8428 42.2799 81.111 42.2411 80.0702 42.1258C79.9167 42.1258 79.7626 42.4716 80.0702 42.5487C81.0721 42.7417 81.2651 42.7417 81.8046 43.0118C81.8747 43.05 81.9568 43.136 82.0492 43.2672H82.0498C82.5161 43.9226 83.2556 45.6939 84.1543 48.136C84.0772 48.306 83.9995 48.4729 83.9231 48.6398H83.9225C83.5225 49.5047 83.1263 50.3417 82.6626 51.327C82.2435 52.2181 81.7696 53.2302 81.1881 54.4933C80.7632 53.3755 80.3486 52.3162 79.9537 51.327H79.953C79.5683 50.3614 79.2027 49.4633 78.8664 48.6404C77.7358 45.8697 76.9454 43.9608 76.8906 43.2672H73.3842L76.8906 43.2665C76.883 43.171 76.89 43.0984 76.911 43.05C77.104 42.6646 77.797 42.7805 78.5677 42.5487C78.876 42.4716 78.7989 42.0869 78.5677 42.1258C77.6046 42.2411 75.9473 42.2799 73.9823 42.2799C72.0785 42.2799 71.2282 42.2417 70.204 42.1296L70.2881 31.7219C70.2881 31.2984 70.3256 29.4487 70.4798 28.9481C70.5193 28.7939 70.3256 28.5239 70.0951 28.6786C68.5543 29.6417 65.9721 30.836 63.9689 31.3755C63.776 31.4143 63.6989 31.6831 64.0072 31.7219C64.932 31.8379 65.4715 31.992 65.818 32.2232C66.204 32.4544 66.3186 33.1863 66.3186 42.7035C66.3186 42.8576 66.1263 42.8958 65.9721 42.8576C64.8167 42.3563 64.1231 42.1258 62.4658 42.1258C60.797 42.1258 59.2339 42.5353 57.897 43.2672L60.4747 43.2665C60.8957 43.0977 61.3779 43.0118 61.9269 43.0118C62.483 43.0118 63.0078 43.0977 63.4906 43.2672C64.0785 43.4723 64.6033 43.8003 65.0479 44.2442C65.7078 44.9041 66.1626 45.9232 66.2868 48.6398L70.1517 48.6404L70.1951 43.2672L70.2008 42.5551C71.1817 42.7423 71.7161 42.7831 72.2874 43.0118C72.3619 43.0391 72.4517 43.1258 72.5562 43.2672C73.067 43.9621 73.9174 45.9691 74.9619 48.6404H77.7053L74.9619 48.6411C75.2893 49.478 75.6358 50.3799 75.997 51.327L76.7728 51.3277H75.997C76.6384 53.0118 77.3269 54.8391 78.0377 56.7003H78.0384C78.2084 57.1468 78.3804 57.5958 78.553 58.0436L79.3753 58.0442L78.553 58.0449C78.6855 58.3895 78.8193 58.7341 78.9524 59.0786C79.0301 59.3098 79.9543 59.3869 80.1097 59.0398C80.239 58.7156 80.3753 58.3837 80.5161 58.0449H80.5167C80.7008 57.6035 80.8938 57.1532 81.0925 56.7003L79.5645 56.6997L81.0925 56.699C81.9027 54.843 82.8027 52.9258 83.576 51.3283H83.5766C83.9314 50.5952 84.2594 49.9296 84.5396 49.3691C84.7568 49.9774 84.9823 50.6353 85.2142 51.327L87.3225 51.3277L85.2142 51.3283C85.7702 52.9876 86.3632 54.8455 86.976 56.7003H87.3377H86.976C87.1237 57.1487 87.2734 57.5971 87.4237 58.0436C87.5409 58.3907 87.6581 58.7366 87.7766 59.0786C87.8537 59.3098 88.8167 59.3869 88.932 59.0398C89.0537 58.7073 89.1753 58.3755 89.2963 58.0449H89.297C89.4626 57.5939 89.6282 57.1455 89.7938 56.7009H89.7944C90.5002 54.8047 91.1963 52.9856 91.8575 51.3277C92.2384 50.3735 92.6072 49.4723 92.9588 48.6404H92.9594C94.1014 45.9449 95.0734 43.9742 95.7129 43.2672H93.8804L95.7129 43.2665C95.8263 43.1404 95.9295 43.0544 96.0218 43.0118C96.5995 42.7417 97.1008 42.7805 98.0639 42.5487Z" fill="black" fill-opacity="0.25"/>
<path fill-rule="evenodd" clip-rule="evenodd" d="M38.6005 41.9707C37.37 41.9707 36.2267 42.472 35.1719 43.2669L42.133 43.2662C41.3903 42.4522 40.2407 41.9707 38.6005 41.9707Z" fill="black" fill-opacity="0.25"/>
<mask id="mask0_0_88" style="mask-type:luminance" maskUnits="userSpaceOnUse" x="0" y="0" width="164" height="101">
<path fill-rule="evenodd" clip-rule="evenodd" d="M0 100.299H163.134V0.356445H0V100.299Z" fill="white"/>
</mask>
<g mask="url(#mask0_0_88)">
</g>
</svg>
