<svg width="163" height="102" viewBox="0 0 163 102" fill="none" xmlns="http://www.w3.org/2000/svg">
<path fill-rule="evenodd" clip-rule="evenodd" d="M61.2004 44.5668V41.4561H48.2668V44.5668H52.7694V56.8459H48.2668V59.9561H61.2004V56.8459H56.289V44.5668H61.2004Z" fill="black" fill-opacity="0.25"/>
<path fill-rule="evenodd" clip-rule="evenodd" d="M82.6878 44.6897H77.5315V49.765C77.5315 49.765 80.3138 49.6833 82.6062 49.6833C84.898 49.6833 85.4707 49.1922 85.4707 46.8998C85.4707 44.2808 82.6878 44.6897 82.6878 44.6897Z" fill="black" fill-opacity="0.25"/>
<path fill-rule="evenodd" clip-rule="evenodd" d="M89.1547 55.4951V59.7521H85.4712V55.7407C85.4712 55.7407 85.4712 52.6306 83.3427 52.6306C81.2149 52.6306 77.5313 52.7122 77.5313 52.7122V59.8337H73.9288V41.4976H84.5706C84.5706 41.4976 89.1547 41.2521 89.1547 46.2451C89.1547 51.2388 86.3718 51.4844 86.3718 51.4844C86.3718 51.4844 89.1547 51.6476 89.1547 55.4951ZM67.7896 64.4179H94.5566V37.1597H67.7896V64.4179Z" fill="black" fill-opacity="0.25"/>
<path fill-rule="evenodd" clip-rule="evenodd" d="M99.4685 41.4971V44.5262H102.006V56.8863H99.4685V59.9154H115.103V53.9395H111.993V56.8863H105.362V51.8933H110.274V48.8642H105.362V44.5262H111.747V47.4724H115.103V41.4971H99.4685Z" fill="black" fill-opacity="0.25"/>
<path fill-rule="evenodd" clip-rule="evenodd" d="M136.386 44.6082H130.82V56.8867H136.632C139.415 56.8867 139.496 53.2848 139.496 53.2848V48.5373C139.496 44.362 136.386 44.6082 136.386 44.6082Z" fill="black" fill-opacity="0.25"/>
<path fill-rule="evenodd" clip-rule="evenodd" d="M136.795 60.0794C130.083 60.0794 127.054 60.1611 127.054 60.1611V41.5794H134.994C134.994 41.5794 143.18 40.6794 143.18 48.0465V53.2035C143.18 53.2035 143.507 60.0794 136.795 60.0794ZM121.078 64.4174H147.846V37.1592H121.078V64.4174Z" fill="black" fill-opacity="0.25"/>
<path fill-rule="evenodd" clip-rule="evenodd" d="M35.5385 59.9155H30.9543L28.0075 46.5725L24.8151 59.9972H20.3132L16.5474 41.5794H20.2309L22.7689 55.5775L26.043 41.5794L30.0537 41.6617L33.3284 55.8225L35.7841 41.5794H39.3037L35.5385 59.9155ZM14.2556 64.4174H41.0227V37.1592H14.2556V64.4174Z" fill="black" fill-opacity="0.25"/>
<mask id="mask0_0_71" style="mask-type:luminance" maskUnits="userSpaceOnUse" x="0" y="1" width="163" height="100">
<path fill-rule="evenodd" clip-rule="evenodd" d="M0 100.443H162.101V1.1333H0V100.443Z" fill="white"/>
</mask>
<g mask="url(#mask0_0_71)">
</g>
</svg>
