<svg width="16" height="11" viewBox="0 0 16 11" fill="none" xmlns="http://www.w3.org/2000/svg">
<path fill-rule="evenodd" clip-rule="evenodd" d="M13.825 2.58767L8.21101 6.92607C8.10828 7.00511 7.98421 7.04463 7.86014 7.04463C7.73551 7.04463 7.61144 7.00511 7.5087 6.92607L1.89466 2.58767C1.6527 2.4009 1.61396 2.05985 1.80765 1.82653C2.00189 1.59374 2.35558 1.55639 2.59698 1.74262L7.86014 5.8098L13.1227 1.74262C13.3647 1.55585 13.7178 1.5932 13.9121 1.82653C14.1058 2.05985 14.067 2.4009 13.825 2.58767ZM14.597 0H1.1233C0.502944 0 0.000488281 0.484511 0.000488281 1.08271V9.20301C0.000488281 9.80066 0.502944 10.2857 1.1233 10.2857H14.597C15.2168 10.2857 15.7198 9.80066 15.7198 9.20301V1.08271C15.7198 0.484511 15.2168 0 14.597 0Z" fill="#FFC700"/>
</svg>
