<svg width="78" height="51" viewBox="0 0 78 51" fill="none" xmlns="http://www.w3.org/2000/svg">
<path d="M5.44 38.408C4.46533 38.408 3.64933 38.068 2.992 37.388C2.35733 36.6853 2.04 35.8467 2.04 34.872C2.04 33.8747 2.35733 33.036 2.992 32.356C3.64933 31.676 4.46533 31.336 5.44 31.336C6.43733 31.336 7.25333 31.676 7.888 32.356C8.52267 33.036 8.84 33.8747 8.84 34.872C8.84 35.8467 8.52267 36.6853 7.888 37.388C7.25333 38.068 6.43733 38.408 5.44 38.408ZM18.0986 38.408C16.784 38.408 15.7413 38.1473 14.9706 37.626C14.2226 37.082 13.6786 36.334 13.3386 35.382C13.0213 34.4073 12.8626 33.2853 12.8626 32.016V14.336H18.7106V32.22C18.7106 32.7867 18.8126 33.1833 19.0166 33.41C19.2433 33.614 19.4586 33.716 19.6626 33.716C19.776 33.716 19.8666 33.716 19.9346 33.716C20.0253 33.6933 20.1386 33.6707 20.2746 33.648L20.9546 37.932C20.66 38.068 20.2746 38.1813 19.7986 38.272C19.3226 38.3627 18.756 38.408 18.0986 38.408ZM30.5376 38.408C29.0869 38.408 27.7156 38.0567 26.4236 37.354C25.1542 36.6513 24.1116 35.6427 23.2956 34.328C22.5022 32.9907 22.1056 31.3813 22.1056 29.5C22.1056 27.6187 22.5022 26.0207 23.2956 24.706C24.1116 23.3687 25.1542 22.3487 26.4236 21.646C27.7156 20.9433 29.0869 20.592 30.5376 20.592C31.9882 20.592 33.3482 20.9433 34.6176 21.646C35.9096 22.3487 36.9522 23.3687 37.7456 24.706C38.5616 26.0207 38.9696 27.6187 38.9696 29.5C38.9696 31.3813 38.5616 32.9907 37.7456 34.328C36.9522 35.6427 35.9096 36.6513 34.6176 37.354C33.3482 38.0567 31.9882 38.408 30.5376 38.408ZM30.5376 33.716C31.4216 33.716 32.0449 33.342 32.4076 32.594C32.7929 31.8233 32.9856 30.792 32.9856 29.5C32.9856 28.208 32.7929 27.188 32.4076 26.44C32.0449 25.6693 31.4216 25.284 30.5376 25.284C29.6536 25.284 29.0189 25.6693 28.6336 26.44C28.2709 27.188 28.0896 28.208 28.0896 29.5C28.0896 30.792 28.2709 31.8233 28.6336 32.594C29.0189 33.342 29.6536 33.716 30.5376 33.716ZM48.203 45.004C46.911 45.004 45.721 44.8567 44.633 44.562C43.545 44.29 42.6723 43.848 42.015 43.236C41.3803 42.624 41.063 41.808 41.063 40.788C41.063 39.4507 41.8563 38.3627 43.443 37.524V37.388C43.0123 37.0707 42.6383 36.6853 42.321 36.232C42.0263 35.756 41.879 35.1667 41.879 34.464C41.879 33.8747 42.049 33.2967 42.389 32.73C42.7516 32.1633 43.2163 31.676 43.783 31.268V31.132C43.171 30.724 42.627 30.146 42.151 29.398C41.6976 28.6273 41.471 27.7547 41.471 26.78C41.471 25.3747 41.811 24.2187 42.491 23.312C43.1936 22.3827 44.1003 21.7027 45.211 21.272C46.3216 20.8187 47.5003 20.592 48.747 20.592C49.7443 20.592 50.651 20.728 51.467 21H57.791V25.216H55.343C55.411 25.42 55.4676 25.6807 55.513 25.998C55.581 26.3153 55.615 26.644 55.615 26.984C55.615 28.3213 55.309 29.4093 54.697 30.248C54.085 31.064 53.2576 31.6647 52.215 32.05C51.1723 32.4353 50.0163 32.628 48.747 32.628C48.1803 32.628 47.5456 32.5487 46.843 32.39C46.571 32.6393 46.435 32.968 46.435 33.376C46.435 33.7387 46.6163 33.9993 46.979 34.158C47.3643 34.3167 47.9763 34.396 48.815 34.396H51.365C53.4956 34.396 55.139 34.7473 56.295 35.45C57.4736 36.13 58.063 37.252 58.063 38.816C58.063 40.04 57.655 41.1167 56.839 42.046C56.0456 42.9753 54.9123 43.7007 53.439 44.222C51.9656 44.7433 50.2203 45.004 48.203 45.004ZM48.747 29.16C49.291 29.16 49.733 28.9673 50.073 28.582C50.413 28.1967 50.583 27.596 50.583 26.78C50.583 25.9867 50.413 25.4087 50.073 25.046C49.733 24.6607 49.291 24.468 48.747 24.468C48.203 24.468 47.761 24.6607 47.421 25.046C47.081 25.4087 46.911 25.9867 46.911 26.78C46.911 27.596 47.081 28.1967 47.421 28.582C47.761 28.9673 48.203 29.16 48.747 29.16ZM49.155 41.4C50.107 41.4 50.9003 41.2527 51.535 40.958C52.1696 40.686 52.487 40.312 52.487 39.836C52.487 39.3827 52.283 39.0993 51.875 38.986C51.4896 38.8727 50.9343 38.816 50.209 38.816H48.883C48.203 38.816 47.6816 38.7933 47.319 38.748C46.979 38.7253 46.6843 38.68 46.435 38.612C46.027 39.02 45.823 39.428 45.823 39.836C45.823 40.38 46.129 40.7767 46.741 41.026C47.3756 41.2753 48.1803 41.4 49.155 41.4ZM67.4595 38.408C66.0088 38.408 64.6375 38.0567 63.3455 37.354C62.0761 36.6513 61.0335 35.6427 60.2175 34.328C59.4241 32.9907 59.0275 31.3813 59.0275 29.5C59.0275 27.6187 59.4241 26.0207 60.2175 24.706C61.0335 23.3687 62.0761 22.3487 63.3455 21.646C64.6375 20.9433 66.0088 20.592 67.4595 20.592C68.9101 20.592 70.2701 20.9433 71.5395 21.646C72.8315 22.3487 73.8741 23.3687 74.6675 24.706C75.4835 26.0207 75.8915 27.6187 75.8915 29.5C75.8915 31.3813 75.4835 32.9907 74.6675 34.328C73.8741 35.6427 72.8315 36.6513 71.5395 37.354C70.2701 38.0567 68.9101 38.408 67.4595 38.408ZM67.4595 33.716C68.3435 33.716 68.9668 33.342 69.3295 32.594C69.7148 31.8233 69.9075 30.792 69.9075 29.5C69.9075 28.208 69.7148 27.188 69.3295 26.44C68.9668 25.6693 68.3435 25.284 67.4595 25.284C66.5755 25.284 65.9408 25.6693 65.5555 26.44C65.1928 27.188 65.0115 28.208 65.0115 29.5C65.0115 30.792 65.1928 31.8233 65.5555 32.594C65.9408 33.342 66.5755 33.716 67.4595 33.716Z" fill="black"/>
</svg>
