<svg width="74" height="32" viewBox="0 0 74 32" fill="none" xmlns="http://www.w3.org/2000/svg">
<path d="M3.44 24.408C2.44267 24.408 1.62667 24.068 0.992 23.388C0.357333 22.708 0.0400001 21.8693 0.0400001 20.872C0.0400001 19.8747 0.357333 19.036 0.992 18.356C1.62667 17.676 2.44267 17.336 3.44 17.336C4.43733 17.336 5.25333 17.676 5.888 18.356C6.52267 19.036 6.84 19.8747 6.84 20.872C6.84 21.8693 6.52267 22.708 5.888 23.388C5.25333 24.068 4.43733 24.408 3.44 24.408ZM16.0986 24.408C15.1013 24.408 14.2626 24.2607 13.5826 23.966C12.9253 23.6487 12.3926 23.2067 11.9846 22.64C11.5766 22.0733 11.282 21.4047 11.1006 20.634C10.942 19.8407 10.8626 18.968 10.8626 18.016V0.335999H16.7106V18.22C16.7106 18.8093 16.8126 19.206 17.0166 19.41C17.2433 19.614 17.4586 19.716 17.6626 19.716C17.776 19.716 17.8666 19.716 17.9346 19.716C18.0253 19.716 18.1386 19.6933 18.2746 19.648L18.9546 23.932C18.6373 24.068 18.2406 24.1813 17.7646 24.272C17.3113 24.3627 16.756 24.408 16.0986 24.408ZM28.5376 24.408C27.4496 24.408 26.3956 24.2153 25.3756 23.83C24.3556 23.422 23.4489 22.844 22.6556 22.096C21.8849 21.3253 21.2616 20.3847 20.7856 19.274C20.3322 18.1633 20.1056 16.9053 20.1056 15.5C20.1056 14.0947 20.3322 12.8367 20.7856 11.726C21.2616 10.6153 21.8849 9.686 22.6556 8.938C23.4489 8.16733 24.3556 7.58933 25.3756 7.204C26.3956 6.796 27.4496 6.592 28.5376 6.592C29.6256 6.592 30.6682 6.796 31.6656 7.204C32.6856 7.58933 33.5809 8.16733 34.3516 8.938C35.1449 9.686 35.7796 10.6153 36.2556 11.726C36.7316 12.8367 36.9696 14.0947 36.9696 15.5C36.9696 16.9053 36.7316 18.1633 36.2556 19.274C35.7796 20.3847 35.1449 21.3253 34.3516 22.096C33.5809 22.844 32.6856 23.422 31.6656 23.83C30.6682 24.2153 29.6256 24.408 28.5376 24.408ZM28.5376 19.716C29.4216 19.716 30.0449 19.342 30.4076 18.594C30.7929 17.8233 30.9856 16.792 30.9856 15.5C30.9856 14.208 30.7929 13.188 30.4076 12.44C30.0449 11.6693 29.4216 11.284 28.5376 11.284C27.6536 11.284 27.0189 11.6693 26.6336 12.44C26.2709 13.188 26.0896 14.208 26.0896 15.5C26.0896 16.792 26.2709 17.8233 26.6336 18.594C27.0189 19.342 27.6536 19.716 28.5376 19.716ZM46.203 31.004C45.2283 31.004 44.3103 30.9247 43.449 30.766C42.5876 30.63 41.8283 30.392 41.171 30.052C40.5363 29.712 40.0263 29.27 39.641 28.726C39.2556 28.2047 39.063 27.5587 39.063 26.788C39.063 25.4507 39.8563 24.3627 41.443 23.524V23.388C40.9896 23.0707 40.6156 22.6853 40.321 22.232C40.0263 21.7787 39.879 21.1893 39.879 20.464C39.879 19.8747 40.049 19.2967 40.389 18.73C40.729 18.1633 41.1936 17.676 41.783 17.268V17.132C41.171 16.724 40.627 16.146 40.151 15.398C39.6976 14.65 39.471 13.7773 39.471 12.78C39.471 11.7373 39.675 10.8307 40.083 10.06C40.491 9.26667 41.035 8.62067 41.715 8.122C42.395 7.60067 43.1656 7.21533 44.027 6.966C44.911 6.71667 45.8176 6.592 46.747 6.592C47.7443 6.592 48.651 6.728 49.467 7H55.791V11.216H53.343C53.411 11.42 53.4676 11.6807 53.513 11.998C53.581 12.3153 53.615 12.644 53.615 12.984C53.615 13.9813 53.4336 14.8427 53.071 15.568C52.7083 16.2707 52.221 16.8487 51.609 17.302C50.997 17.7553 50.2716 18.0953 49.433 18.322C48.5943 18.526 47.699 18.628 46.747 18.628C46.1803 18.628 45.5456 18.5487 44.843 18.39C44.6616 18.5487 44.5483 18.696 44.503 18.832C44.4576 18.9453 44.435 19.1267 44.435 19.376C44.435 19.7613 44.6163 20.0333 44.979 20.192C45.3416 20.328 45.9536 20.396 46.815 20.396H49.365C51.4956 20.396 53.139 20.7473 54.295 21.45C55.4736 22.13 56.063 23.252 56.063 24.816C56.063 25.7453 55.825 26.584 55.349 27.332C54.8956 28.1027 54.2383 28.76 53.377 29.304C52.5383 29.848 51.507 30.2673 50.283 30.562C49.0816 30.8567 47.7216 31.004 46.203 31.004ZM46.747 15.16C47.291 15.16 47.733 14.9673 48.073 14.582C48.413 14.1967 48.583 13.596 48.583 12.78C48.583 11.9867 48.413 11.4087 48.073 11.046C47.733 10.6607 47.291 10.468 46.747 10.468C46.203 10.468 45.761 10.6607 45.421 11.046C45.081 11.4087 44.911 11.9867 44.911 12.78C44.911 13.596 45.081 14.1967 45.421 14.582C45.761 14.9673 46.203 15.16 46.747 15.16ZM47.155 27.4C48.107 27.4 48.9003 27.2527 49.535 26.958C50.1696 26.686 50.487 26.312 50.487 25.836C50.487 25.3827 50.283 25.0993 49.875 24.986C49.4896 24.8727 48.9343 24.816 48.209 24.816H46.883C46.203 24.816 45.6816 24.7933 45.319 24.748C44.979 24.7253 44.6843 24.68 44.435 24.612C44.231 24.816 44.0723 25.0087 43.959 25.19C43.8683 25.3713 43.823 25.5867 43.823 25.836C43.823 26.38 44.129 26.7767 44.741 27.026C45.353 27.2753 46.1576 27.4 47.155 27.4ZM65.4595 24.408C64.3715 24.408 63.3175 24.2153 62.2975 23.83C61.2775 23.422 60.3708 22.844 59.5775 22.096C58.8068 21.3253 58.1835 20.3847 57.7075 19.274C57.2541 18.1633 57.0275 16.9053 57.0275 15.5C57.0275 14.0947 57.2541 12.8367 57.7075 11.726C58.1835 10.6153 58.8068 9.686 59.5775 8.938C60.3708 8.16733 61.2775 7.58933 62.2975 7.204C63.3175 6.796 64.3715 6.592 65.4595 6.592C66.5475 6.592 67.5901 6.796 68.5875 7.204C69.6075 7.58933 70.5028 8.16733 71.2735 8.938C72.0668 9.686 72.7015 10.6153 73.1775 11.726C73.6535 12.8367 73.8915 14.0947 73.8915 15.5C73.8915 16.9053 73.6535 18.1633 73.1775 19.274C72.7015 20.3847 72.0668 21.3253 71.2735 22.096C70.5028 22.844 69.6075 23.422 68.5875 23.83C67.5901 24.2153 66.5475 24.408 65.4595 24.408ZM65.4595 19.716C66.3435 19.716 66.9668 19.342 67.3295 18.594C67.7148 17.8233 67.9075 16.792 67.9075 15.5C67.9075 14.208 67.7148 13.188 67.3295 12.44C66.9668 11.6693 66.3435 11.284 65.4595 11.284C64.5755 11.284 63.9408 11.6693 63.5555 12.44C63.1928 13.188 63.0115 14.208 63.0115 15.5C63.0115 16.792 63.1928 17.8233 63.5555 18.594C63.9408 19.342 64.5755 19.716 65.4595 19.716Z" fill="white"/>
</svg>
