<svg width="58" height="58" viewBox="0 0 58 58" fill="none" xmlns="http://www.w3.org/2000/svg">
<path fill-rule="evenodd" clip-rule="evenodd" d="M7 2C4.23828 2 2 4.23828 2 7V39C2 41.7617 4.23828 44 7 44H51C53.7617 44 56 41.7617 56 39V7C56 4.23828 53.7617 2 51 2H7ZM0 7C0 3.13372 3.13372 0 7 0H51C54.8663 0 58 3.13372 58 7V39C58 42.8663 54.8663 46 51 46H7C3.13372 46 0 42.8663 0 39V7Z" fill="black"/>
<path fill-rule="evenodd" clip-rule="evenodd" d="M22 45C22 44.4477 22.4477 44 23 44H35C35.5523 44 36 44.4477 36 45V57C36 57.5523 35.5523 58 35 58H23C22.4477 58 22 57.5523 22 57V45ZM24 46V56H34V46H24Z" fill="black"/>
<path fill-rule="evenodd" clip-rule="evenodd" d="M22 45C22 44.4477 22.4477 44 23 44H35C35.5523 44 36 44.4477 36 45V57C36 57.5523 35.5523 58 35 58H23C22.4477 58 22 57.5523 22 57V45ZM24 46V56H34V46H24Z" fill="black"/>
<path fill-rule="evenodd" clip-rule="evenodd" d="M11 57C11 56.4477 11.4477 56 12 56H46C46.5523 56 47 56.4477 47 57C47 57.5523 46.5523 58 46 58H12C11.4477 58 11 57.5523 11 57Z" fill="black"/>
<path fill-rule="evenodd" clip-rule="evenodd" d="M0 37.4C0 36.8477 0.447715 36.4 1 36.4H55C55.5523 36.4 56 36.8477 56 37.4C56 37.9523 55.5523 38.4 55 38.4H1C0.447715 38.4 0 37.9523 0 37.4Z" fill="black"/>
<path fill-rule="evenodd" clip-rule="evenodd" d="M11 10C10.4483 10 10 10.4483 10 11V15.202C10 15.7543 9.55228 16.202 9 16.202C8.44772 16.202 8 15.7543 8 15.202V11C8 9.34372 9.34372 8 11 8H15C15.5523 8 16 8.44772 16 9C16 9.55228 15.5523 10 15 10H11Z" fill="black"/>
</svg>
