<svg width="58" height="58" viewBox="0 0 58 58" fill="none" xmlns="http://www.w3.org/2000/svg">
<path d="M45.138 34.426C47.718 36.896 51.042 39.416 55 41C55 41 52.898 35.724 51.742 29.012C55.014 26.046 57 22.204 57 18C57 8.612 47.15 1 35 1C22.85 1 13 8.612 13 18C13 18.286 13.01 18.572 13.028 18.856" stroke="black" stroke-width="2" stroke-linecap="round" stroke-linejoin="round"/>
<path fill-rule="evenodd" clip-rule="evenodd" d="M1 34C1 24.612 10.85 17 23 17C35.15 17 45 24.612 45 34C45 43.388 35.15 51 23 51C19.73 51 16.64 50.434 13.85 49.446C11.154 52.21 7.484 55.206 3 57C3 57 5.102 51.724 6.258 45.012C2.986 42.046 1 38.204 1 34Z" stroke="black" stroke-width="2" stroke-linecap="round" stroke-linejoin="round"/>
<path d="M9 34C9 29.742 14.75 25 23 25" stroke="black" stroke-width="2" stroke-linecap="round" stroke-linejoin="round"/>
</svg>
